<?xml version="1.0" encoding="utf-8"?>
<!-- Generator: Adobe Illustrator 25.0.0, SVG Export Plug-In . SVG Version: 6.00 Build 0)  -->
<svg version="1.1" id="Layer_1" xmlns="http://www.w3.org/2000/svg" xmlns:xlink="http://www.w3.org/1999/xlink" x="0px" y="0px"
	 viewBox="0 0 456.61 121.51" style="enable-background:new 0 0 456.61 121.51;" xml:space="preserve">
<style type="text/css">
	.st0{fill:url(#SVGID_1_);}
	.st1{fill:url(#SVGID_2_);}
	.st2{fill:#FFFFFF;}
	.st3{fill:url(#SVGID_3_);}
	.st4{fill:url(#SVGID_4_);}
	.st5{fill:url(#SVGID_5_);}
	.st6{fill:url(#SVGID_6_);}
	.st7{fill:url(#SVGID_7_);}
	.st8{fill:url(#SVGID_8_);}
	.st9{fill:none;stroke:#FFFFFF;stroke-width:2;stroke-miterlimit:10;}
	.st10{fill:url(#SVGID_9_);}
</style>
<g>
	<linearGradient id="SVGID_1_" gradientUnits="userSpaceOnUse" x1="50.0857" y1="108.5015" x2="79.07" y2="108.5015">
		<stop  offset="0" style="stop-color:#808184"/>
		<stop  offset="0.1204" style="stop-color:#ABACAE"/>
		<stop  offset="0.2434" style="stop-color:#CFD0D1"/>
		<stop  offset="0.3584" style="stop-color:#E9EAEA"/>
		<stop  offset="0.4611" style="stop-color:#F9F9FA"/>
		<stop  offset="0.5413" style="stop-color:#FFFFFF"/>
	</linearGradient>
	<rect x="50.09" y="101.54" class="st0" width="28.98" height="13.93"/>
	<linearGradient id="SVGID_2_" gradientUnits="userSpaceOnUse" x1="50.0857" y1="37.5839" x2="50.0857" y2="115.466">
		<stop  offset="0" style="stop-color:#808184"/>
		<stop  offset="0.1047" style="stop-color:#999A9C"/>
		<stop  offset="0.2856" style="stop-color:#BDBEBF"/>
		<stop  offset="0.4672" style="stop-color:#DADADB"/>
		<stop  offset="0.6475" style="stop-color:#EFEFEF"/>
		<stop  offset="0.8258" style="stop-color:#FBFBFB"/>
		<stop  offset="1" style="stop-color:#FFFFFF"/>
	</linearGradient>
	<path class="st1" d="M57.05,49.82v65.64h-7.32c-3.65,0-6.61-2.96-6.61-6.61V38.83c0-1.11,1.34-1.66,2.13-0.88L57.05,49.82z"/>
	<path class="st2" d="M48.15,35.82H8.01c-0.95,0-1.43,1.15-0.76,1.83l12.11,12.18h37.68v-5.1c0-1.24-0.49-2.43-1.37-3.31l-4.22-4.22
		C50.58,36.31,49.39,35.82,48.15,35.82z"/>
	
		<linearGradient id="SVGID_3_" gradientUnits="userSpaceOnUse" x1="6658.1475" y1="37.5839" x2="6658.1475" y2="115.4661" gradientTransform="matrix(-1 0 0 1 6737.875 0)">
		<stop  offset="0" style="stop-color:#808184"/>
		<stop  offset="1.561918e-03" style="stop-color:#808184"/>
		<stop  offset="0.1343" style="stop-color:#A7A8AA"/>
		<stop  offset="0.2707" style="stop-color:#C7C7C9"/>
		<stop  offset="0.4127" style="stop-color:#E0E0E1"/>
		<stop  offset="0.5609" style="stop-color:#F1F1F2"/>
		<stop  offset="0.7191" style="stop-color:#FCFCFC"/>
		<stop  offset="0.9047" style="stop-color:#FFFFFF"/>
	</linearGradient>
	<path class="st3" d="M72.76,49.82v65.64h7.32c3.65,0,6.61-2.96,6.61-6.61V38.83c0-1.11-1.34-1.66-2.13-0.88L72.76,49.82z"/>
	<path class="st2" d="M123.12,35.82H81.67c-1.24,0-2.43,0.49-3.31,1.37l-4.22,4.22c-0.88,0.88-1.37,2.07-1.37,3.31v5.1h37.68
		l13.04-13.12C123.82,36.38,123.59,35.82,123.12,35.82z"/>
	<linearGradient id="SVGID_4_" gradientUnits="userSpaceOnUse" x1="7.4984" y1="13.1766" x2="64.9065" y2="13.1766">
		<stop  offset="0" style="stop-color:#808184"/>
		<stop  offset="0.1047" style="stop-color:#999A9C"/>
		<stop  offset="0.2856" style="stop-color:#BDBEBF"/>
		<stop  offset="0.4672" style="stop-color:#DADADB"/>
		<stop  offset="0.6475" style="stop-color:#EFEFEF"/>
		<stop  offset="0.8258" style="stop-color:#FBFBFB"/>
		<stop  offset="1" style="stop-color:#FFFFFF"/>
	</linearGradient>
	<path class="st4" d="M64.91,6.21H19.37L7.93,17.65c-0.92,0.92-0.27,2.49,1.03,2.49h55.95V6.21z"/>
	
		<linearGradient id="SVGID_5_" gradientUnits="userSpaceOnUse" x1="6.8772" y1="858.7732" x2="35.8286" y2="858.7732" gradientTransform="matrix(1 0 0 -1 0 901.5917)">
		<stop  offset="0" style="stop-color:#808184"/>
		<stop  offset="0.1047" style="stop-color:#999A9C"/>
		<stop  offset="0.2856" style="stop-color:#BDBEBF"/>
		<stop  offset="0.4672" style="stop-color:#DADADB"/>
		<stop  offset="0.6475" style="stop-color:#EFEFEF"/>
		<stop  offset="0.8258" style="stop-color:#FBFBFB"/>
		<stop  offset="1" style="stop-color:#FFFFFF"/>
	</linearGradient>
	<path class="st5" d="M35.83,49.78H19.37L7.18,37.6c-0.64-0.64-0.19-1.74,0.72-1.74h27.93V49.78z"/>
	<linearGradient id="SVGID_6_" gradientUnits="userSpaceOnUse" x1="5.4369" y1="28.017" x2="19.3659" y2="28.017">
		<stop  offset="0" style="stop-color:#CFD1D2"/>
		<stop  offset="0.1526" style="stop-color:#E0E2E2"/>
		<stop  offset="0.3649" style="stop-color:#F2F2F2"/>
		<stop  offset="0.5956" style="stop-color:#FCFCFC"/>
		<stop  offset="0.8762" style="stop-color:#FFFFFF"/>
	</linearGradient>
	<path class="st6" d="M19.37,49.82L6.59,36.97c-0.74-0.74-1.15-1.74-1.15-2.78V21.73c0-1.02,0.4-1.99,1.12-2.71L19.37,6.21V49.82z"
		/>
	
		<linearGradient id="SVGID_7_" gradientUnits="userSpaceOnUse" x1="6615.3994" y1="13.1766" x2="6674.6196" y2="13.1766" gradientTransform="matrix(-1 0 0 1 6737.875 0)">
		<stop  offset="0" style="stop-color:#808184"/>
		<stop  offset="0.1047" style="stop-color:#999A9C"/>
		<stop  offset="0.2856" style="stop-color:#BDBEBF"/>
		<stop  offset="0.4672" style="stop-color:#DADADB"/>
		<stop  offset="0.6475" style="stop-color:#EFEFEF"/>
		<stop  offset="0.8258" style="stop-color:#FBFBFB"/>
		<stop  offset="1" style="stop-color:#FFFFFF"/>
	</linearGradient>
	<path class="st7" d="M63.26,6.21h47.19l11.63,11.63c0.85,0.85,0.25,2.3-0.95,2.3H63.26V6.21z"/>
	
		<linearGradient id="SVGID_8_" gradientUnits="userSpaceOnUse" x1="6614.939" y1="858.7732" x2="6643.8901" y2="858.7732" gradientTransform="matrix(-1 0 0 -1 6737.875 901.5917)">
		<stop  offset="0" style="stop-color:#808184"/>
		<stop  offset="0.1047" style="stop-color:#999A9C"/>
		<stop  offset="0.2856" style="stop-color:#BDBEBF"/>
		<stop  offset="0.4672" style="stop-color:#DADADB"/>
		<stop  offset="0.6475" style="stop-color:#EFEFEF"/>
		<stop  offset="0.8258" style="stop-color:#FBFBFB"/>
		<stop  offset="1" style="stop-color:#FFFFFF"/>
	</linearGradient>
	<path class="st8" d="M93.98,49.78h16.46l12.19-12.19c0.64-0.64,0.19-1.74-0.72-1.74H93.98V49.78z"/>
	<path class="st9" d="M111.6,3.44h-1.15H86.66l-10.25,0h-3.65H41.69l-22.32,0h-1.15L17.4,4.25L4.6,17.06
		c-1.25,1.25-1.94,2.91-1.94,4.67v12.46c0,1.79,0.69,3.47,1.96,4.74l0.36,0.36c0.07,0.08,0.15,0.18,0.24,0.27l5.22,5.22l6.96,7
		l0.81,0.82h1.15h20.98v56.26c0,5.18,4.21,9.39,9.39,9.39h0.35h6.96h15.71h6.31h1.01c5.18,0,9.39-4.21,9.39-9.39V52.6h20.98h1.15
		l0.81-0.82l6.96-7l5.22-5.22c0.1-0.1,0.17-0.19,0.24-0.27l0.36-0.36l0.26-0.27c0.21-0.21,0.39-0.45,0.54-0.71
		c0.76-1.12,1.16-2.41,1.16-3.76V21.73c0-1.76-0.69-3.42-1.94-4.67l-1.17-1.17L112.41,4.25L111.6,3.44L111.6,3.44z"/>
	<g>
		<path class="st2" d="M107.67,22.92v10.13H81.67c-1.99,0-3.86,0.78-5.27,2.18l-4.22,4.22c-1.41,1.41-2.18,3.28-2.18,5.27v5.1v48.94
			H59.82V49.82v-5.1c0-1.99-0.78-3.86-2.18-5.27l-4.22-4.22c-1.41-1.41-3.28-2.18-5.27-2.18H22.14V22.92h50.62h3.65H107.67
			 M108.67,21.92h-1H76.41h-3.65H22.14h-1v1v10.13v1h1h26.01c1.72,0,3.34,0.67,4.56,1.89l4.22,4.22c1.22,1.22,1.89,2.84,1.89,4.56
			v5.1v48.94v1h1h10.16h1v-1V49.82v-5.1c0-1.72,0.67-3.34,1.89-4.56l4.22-4.22c1.22-1.22,2.84-1.89,4.56-1.89h26.01h1v-1V22.92
			V21.92L108.67,21.92z"/>
	</g>
	<linearGradient id="SVGID_9_" gradientUnits="userSpaceOnUse" x1="124.3762" y1="28.017" x2="110.4471" y2="28.017">
		<stop  offset="0" style="stop-color:#CFD1D2"/>
		<stop  offset="0.1526" style="stop-color:#E0E2E2"/>
		<stop  offset="0.3649" style="stop-color:#F2F2F2"/>
		<stop  offset="0.5956" style="stop-color:#FCFCFC"/>
		<stop  offset="0.8762" style="stop-color:#FFFFFF"/>
	</linearGradient>
	<path class="st10" d="M110.45,49.82l12.78-12.85c0.74-0.74,1.15-1.74,1.15-2.78V21.73c0-1.02-0.4-1.99-1.12-2.71L110.45,6.21V49.82
		z"/>
</g>
<path class="st2" d="M113.94,83.46v6.65h-3.58V72.19h6.52c2.11,0,3.71,0.51,4.78,1.52c1.07,1.01,1.61,2.39,1.61,4.13
	c0,1.71-0.55,3.07-1.66,4.08c-1.11,1.01-2.69,1.52-4.73,1.52H113.94z M119.64,77.85c0-0.9-0.25-1.58-0.74-2.05
	c-0.49-0.47-1.29-0.71-2.41-0.71h-2.56v5.51h2.56C118.59,80.59,119.64,79.68,119.64,77.85z M135.95,90.1l-4.19-6.98h-1.57v6.98
	h-3.58V72.19h6.82c2.08,0,3.67,0.51,4.76,1.52c1.09,1.01,1.64,2.35,1.64,4.01c0,1.35-0.38,2.49-1.13,3.4
	c-0.75,0.91-1.84,1.52-3.26,1.83l4.46,7.15H135.95z M130.2,80.66h2.94c2.05,0,3.07-0.9,3.07-2.71c0-0.86-0.25-1.53-0.75-2.02
	c-0.5-0.48-1.27-0.72-2.32-0.72h-2.94V80.66z M156.21,73.11c1.36,0.78,2.44,1.86,3.22,3.26c0.79,1.4,1.18,2.97,1.18,4.73
	c0,1.76-0.39,3.34-1.18,4.74c-0.79,1.4-1.86,2.49-3.22,3.27c-1.36,0.78-2.88,1.17-4.55,1.17s-3.19-0.39-4.55-1.17
	c-1.36-0.78-2.44-1.87-3.22-3.27c-0.79-1.4-1.18-2.98-1.18-4.74c0-1.76,0.39-3.34,1.18-4.73c0.79-1.4,1.86-2.48,3.22-3.26
	c1.36-0.78,2.88-1.17,4.55-1.17S154.85,72.33,156.21,73.11z M148.89,75.95c-0.8,0.47-1.42,1.15-1.86,2.04
	c-0.45,0.89-0.67,1.92-0.67,3.11c0,1.18,0.22,2.22,0.67,3.11c0.45,0.89,1.07,1.57,1.86,2.04c0.79,0.47,1.72,0.71,2.77,0.71
	c1.05,0,1.97-0.24,2.77-0.71c0.79-0.47,1.42-1.15,1.86-2.04c0.45-0.89,0.67-1.92,0.67-3.11c0-1.18-0.22-2.22-0.67-3.11
	c-0.45-0.89-1.07-1.57-1.86-2.04c-0.79-0.47-1.72-0.71-2.77-0.71C150.61,75.24,149.69,75.47,148.89,75.95z M176.49,72.19v2.84h-4.95
	V90.1h-3.58V75.03h-4.92v-2.84H176.49z M183.06,75.03v4.64h6.34v2.74h-6.34v4.82h7.1v2.87h-10.68V72.19h10.68v2.84H183.06z
	 M207.47,73.74c1.47,1.15,2.44,2.71,2.92,4.69h-3.75c-0.39-0.96-0.99-1.73-1.81-2.28c-0.82-0.56-1.81-0.84-2.96-0.84
	c-0.95,0-1.8,0.24-2.56,0.71c-0.76,0.47-1.35,1.15-1.78,2.03c-0.42,0.88-0.63,1.91-0.63,3.1c0,1.17,0.21,2.19,0.63,3.07
	c0.42,0.88,1.01,1.56,1.78,2.03c0.76,0.47,1.61,0.71,2.56,0.71c1.15,0,2.13-0.28,2.96-0.84c0.82-0.56,1.42-1.32,1.81-2.28h3.75
	c-0.47,1.98-1.45,3.54-2.92,4.69c-1.47,1.15-3.32,1.73-5.56,1.73c-1.71,0-3.22-0.38-4.53-1.15c-1.31-0.77-2.33-1.85-3.04-3.23
	c-0.72-1.39-1.08-2.96-1.08-4.72c0-1.78,0.36-3.36,1.08-4.74c0.72-1.39,1.73-2.46,3.03-3.23c1.3-0.77,2.82-1.15,4.54-1.15
	C204.14,72.01,206,72.59,207.47,73.74z M226.26,72.19v2.84h-4.95V90.1h-3.58V75.03h-4.92v-2.84H226.26z M255.11,72.39V90.1h-3.55
	V77.75l-4.54,12.35h-3.09l-4.54-12.3v12.3h-3.58V72.39h4.34l5.38,13.32l5.28-13.32H255.11z M262.95,72.19V90.1h-3.58V72.19H262.95z
	 M281.84,85.81c-0.74,1.35-1.82,2.41-3.23,3.16c-1.41,0.75-3.09,1.13-5.04,1.13h-6.37V72.19h6.37c1.94,0,3.62,0.37,5.04,1.1
	c1.41,0.74,2.49,1.78,3.23,3.12c0.74,1.34,1.12,2.91,1.12,4.71C282.96,82.9,282.59,84.46,281.84,85.81z M277.75,85.38
	c1.06-1.01,1.59-2.44,1.59-4.26c0-1.84-0.53-3.27-1.59-4.29c-1.06-1.01-2.55-1.52-4.48-1.52h-2.49v11.59h2.49
	C275.2,86.91,276.69,86.4,277.75,85.38z M301.3,85.81c-0.74,1.35-1.82,2.41-3.23,3.16c-1.41,0.75-3.09,1.13-5.04,1.13h-6.37V72.19
	h6.37c1.94,0,3.62,0.37,5.04,1.1c1.41,0.74,2.49,1.78,3.23,3.12c0.74,1.34,1.12,2.91,1.12,4.71
	C302.42,82.9,302.05,84.46,301.3,85.81z M297.21,85.38c1.06-1.01,1.59-2.44,1.59-4.26c0-1.84-0.53-3.27-1.59-4.29
	c-1.06-1.01-2.55-1.52-4.48-1.52h-2.49v11.59h2.49C294.66,86.91,296.15,86.4,297.21,85.38z M309.7,87.36h6.01v2.74h-9.59V72.19h3.58
	V87.36z M322.43,75.03v4.64h6.34v2.74h-6.34v4.82h7.1v2.87h-10.68V72.19h10.68v2.84H322.43z M343.31,75.03v4.64h6.34v2.74h-6.34
	v4.82h7.1v2.87h-10.68V72.19h10.68v2.84H343.31z M364.97,86.5h-7.18l-1.27,3.6h-3.78l6.6-17.71h4.08L370,90.1h-3.78L364.97,86.5z
	 M364.01,83.79l-2.64-7.56l-2.64,7.56H364.01z M384.56,87.73c-0.46,0.77-1.13,1.39-2.03,1.85c-0.9,0.47-1.99,0.7-3.27,0.7
	c-1.27,0-2.4-0.22-3.4-0.65c-1-0.43-1.8-1.05-2.4-1.86c-0.6-0.81-0.94-1.76-1.03-2.84h3.8c0.08,0.73,0.38,1.33,0.88,1.81
	c0.5,0.48,1.16,0.72,1.99,0.72c0.74,0,1.31-0.2,1.71-0.6c0.4-0.4,0.6-0.91,0.6-1.54c0-0.56-0.16-1.02-0.48-1.38
	c-0.32-0.36-0.73-0.66-1.22-0.88c-0.49-0.22-1.17-0.47-2.03-0.76c-1.12-0.37-2.03-0.74-2.74-1.1c-0.71-0.36-1.31-0.89-1.81-1.59
	c-0.5-0.69-0.75-1.6-0.75-2.71c0-1.54,0.55-2.75,1.66-3.64c1.11-0.89,2.58-1.33,4.4-1.33c1.89,0,3.4,0.46,4.53,1.37
	c1.12,0.91,1.76,2.13,1.92,3.65h-3.86c-0.1-0.64-0.37-1.17-0.81-1.59c-0.44-0.41-1.04-0.62-1.8-0.62c-0.66,0-1.19,0.17-1.6,0.52
	c-0.41,0.35-0.61,0.85-0.61,1.51c0,0.52,0.16,0.96,0.47,1.31s0.71,0.63,1.19,0.85c0.48,0.22,1.14,0.47,1.97,0.74
	c1.15,0.41,2.08,0.79,2.8,1.14c0.72,0.35,1.33,0.89,1.84,1.6c0.51,0.71,0.76,1.64,0.76,2.79C385.24,86.12,385.02,86.96,384.56,87.73
	z M401.07,72.19v2.84h-4.95V90.1h-3.58V75.03h-4.92v-2.84H401.07z M414.19,87.36h6.01v2.74h-9.59V72.19h3.58V87.36z M426.92,87.36
	h6.01v2.74h-9.59V72.19h3.58V87.36z M449.73,73.74c1.47,1.15,2.44,2.71,2.92,4.69h-3.75c-0.39-0.96-0.99-1.73-1.81-2.28
	c-0.82-0.56-1.81-0.84-2.96-0.84c-0.95,0-1.8,0.24-2.56,0.71c-0.76,0.47-1.35,1.15-1.78,2.03c-0.42,0.88-0.63,1.91-0.63,3.1
	c0,1.17,0.21,2.19,0.63,3.07s1.01,1.56,1.78,2.03c0.76,0.47,1.61,0.71,2.56,0.71c1.15,0,2.13-0.28,2.96-0.84
	c0.82-0.56,1.42-1.32,1.81-2.28h3.75c-0.47,1.98-1.45,3.54-2.92,4.69c-1.47,1.15-3.32,1.73-5.56,1.73c-1.71,0-3.22-0.38-4.53-1.15
	c-1.31-0.77-2.33-1.85-3.04-3.23c-0.72-1.39-1.08-2.96-1.08-4.72c0-1.78,0.36-3.36,1.08-4.74c0.72-1.39,1.73-2.46,3.03-3.23
	c1.3-0.77,2.82-1.15,4.54-1.15C446.41,72.01,448.26,72.59,449.73,73.74z"/>
<g>
	<path class="st2" d="M112.07,109.28c0,0.83,0.24,1.49,0.72,1.98c0.48,0.49,1.14,0.74,1.97,0.74c0.69,0,1.26-0.18,1.7-0.54
		c0.44-0.36,0.67-0.85,0.67-1.46c0-0.35-0.07-0.65-0.21-0.9c-0.14-0.25-0.32-0.45-0.55-0.61s-0.49-0.29-0.78-0.4
		c-0.29-0.11-0.58-0.21-0.87-0.3c-0.58-0.18-1.13-0.38-1.66-0.58c-0.52-0.2-0.98-0.45-1.37-0.75c-0.39-0.3-0.7-0.67-0.93-1.1
		c-0.23-0.44-0.34-0.99-0.34-1.64c0-0.54,0.11-1.02,0.33-1.45c0.22-0.43,0.52-0.79,0.9-1.09c0.38-0.3,0.82-0.53,1.35-0.69
		c0.52-0.16,1.08-0.24,1.68-0.24c0.66,0,1.25,0.1,1.77,0.3c0.52,0.2,0.97,0.48,1.33,0.83s0.65,0.77,0.85,1.26
		c0.2,0.49,0.3,1.02,0.3,1.59h-2.07c-0.02-0.71-0.21-1.26-0.58-1.68c-0.37-0.41-0.9-0.62-1.59-0.62c-0.67,0-1.21,0.16-1.61,0.47
		c-0.4,0.31-0.6,0.75-0.6,1.3c0,0.32,0.06,0.6,0.18,0.83c0.12,0.23,0.29,0.43,0.51,0.59s0.46,0.3,0.75,0.41s0.58,0.22,0.89,0.31
		c0.51,0.17,1.02,0.35,1.54,0.54c0.52,0.19,0.99,0.44,1.41,0.74c0.42,0.3,0.76,0.66,1.02,1.09c0.26,0.43,0.39,0.97,0.39,1.61
		c0,0.63-0.11,1.18-0.34,1.67c-0.23,0.48-0.54,0.89-0.94,1.23c-0.4,0.34-0.88,0.59-1.44,0.76c-0.56,0.17-1.17,0.25-1.83,0.25
		c-0.66,0-1.27-0.1-1.84-0.31c-0.57-0.21-1.06-0.5-1.47-0.87c-0.41-0.38-0.74-0.84-0.97-1.39c-0.23-0.55-0.35-1.17-0.35-1.86H112.07
		z"/>
	<path class="st2" d="M122.88,100.54h4.85c0.69,0,1.31,0.12,1.86,0.36c0.55,0.24,1.02,0.56,1.41,0.97s0.69,0.88,0.91,1.43
		c0.21,0.54,0.32,1.12,0.32,1.71s-0.11,1.17-0.32,1.7c-0.22,0.54-0.52,1.01-0.91,1.41s-0.86,0.73-1.41,0.97
		c-0.55,0.24-1.17,0.36-1.86,0.36h-2.78v3.98h-2.07V100.54z M127.57,107.7c0.38,0,0.74-0.07,1.06-0.22
		c0.32-0.15,0.59-0.34,0.82-0.59c0.22-0.25,0.39-0.53,0.52-0.85c0.12-0.32,0.18-0.67,0.18-1.04s-0.06-0.72-0.18-1.05
		c-0.12-0.33-0.3-0.62-0.52-0.86c-0.22-0.25-0.49-0.44-0.81-0.59c-0.31-0.15-0.66-0.22-1.05-0.22h-2.65v5.41H127.57z"/>
	<path class="st2" d="M137.72,102.27v3.91h5.36v1.7h-5.36v3.79h5.36v1.75h-7.43v-12.88h7.43v1.72H137.72z"/>
	<path class="st2" d="M159.54,109.26c-0.15,0.63-0.41,1.22-0.76,1.76c-0.35,0.54-0.8,1.02-1.33,1.41c-0.54,0.4-1.15,0.71-1.84,0.94
		c-0.69,0.23-1.44,0.34-2.25,0.34c-1.06,0-2.01-0.18-2.85-0.55s-1.56-0.86-2.14-1.48c-0.58-0.62-1.03-1.34-1.35-2.15
		c-0.31-0.81-0.47-1.67-0.47-2.58c0-0.87,0.15-1.71,0.46-2.52c0.31-0.8,0.74-1.52,1.31-2.14c0.57-0.62,1.26-1.12,2.08-1.5
		s1.74-0.56,2.77-0.56c0.95,0,1.79,0.13,2.53,0.39s1.37,0.61,1.9,1.06c0.53,0.45,0.95,0.97,1.28,1.56c0.32,0.6,0.54,1.24,0.67,1.93
		h-2.16c-0.18-0.87-0.62-1.61-1.31-2.21c-0.69-0.6-1.6-0.9-2.74-0.9c-0.75,0-1.42,0.13-2,0.4c-0.58,0.27-1.07,0.63-1.47,1.08
		c-0.4,0.45-0.7,0.97-0.91,1.56c-0.21,0.59-0.31,1.2-0.31,1.83c0,0.67,0.11,1.31,0.33,1.9c0.22,0.59,0.54,1.11,0.95,1.55
		c0.41,0.44,0.92,0.8,1.53,1.06c0.61,0.26,1.29,0.39,2.06,0.39c0.43,0,0.85-0.06,1.25-0.2c0.41-0.13,0.78-0.31,1.12-0.54
		c0.34-0.23,0.63-0.51,0.87-0.83c0.25-0.32,0.43-0.67,0.55-1.04H159.54z"/>
	<path class="st2" d="M163.08,100.54h2.09v12.88h-2.09V100.54z"/>
	<path class="st2" d="M178.95,113.42h-2.23l-0.62-1.91H171l-0.64,1.91h-2.19l4.51-12.88h1.75L178.95,113.42z M171.55,109.79h4
		l-2-6.39L171.55,109.79z"/>
	<path class="st2" d="M188.06,111.61v1.82h-6.12v-12.88h2.07v11.06H188.06z"/>
	<path class="st2" d="M191.7,102.36h-3.2v-1.82h8.49v1.82h-3.22v11.06h-2.07V102.36z"/>
	<path class="st2" d="M203.38,113.42h-2.28l2.53-5.01l-4.78-7.87h2.42l3.45,5.8l2.88-5.8h2.28L203.38,113.42z"/>
	<path class="st2" d="M230.79,109.26c-0.15,0.63-0.41,1.22-0.76,1.76s-0.8,1.02-1.33,1.41c-0.54,0.4-1.15,0.71-1.84,0.94
		c-0.69,0.23-1.44,0.34-2.25,0.34c-1.06,0-2.01-0.18-2.85-0.55s-1.56-0.86-2.14-1.48c-0.58-0.62-1.03-1.34-1.35-2.15
		c-0.31-0.81-0.47-1.67-0.47-2.58c0-0.87,0.15-1.71,0.46-2.52c0.31-0.8,0.74-1.52,1.31-2.14c0.57-0.62,1.26-1.12,2.08-1.5
		s1.74-0.56,2.77-0.56c0.95,0,1.79,0.13,2.53,0.39s1.37,0.61,1.9,1.06c0.53,0.45,0.96,0.97,1.28,1.56c0.32,0.6,0.54,1.24,0.67,1.93
		h-2.16c-0.18-0.87-0.62-1.61-1.31-2.21c-0.69-0.6-1.6-0.9-2.74-0.9c-0.75,0-1.42,0.13-2,0.4c-0.58,0.27-1.07,0.63-1.47,1.08
		c-0.4,0.45-0.7,0.97-0.91,1.56c-0.21,0.59-0.31,1.2-0.31,1.83c0,0.67,0.11,1.31,0.33,1.9c0.22,0.59,0.54,1.11,0.95,1.55
		c0.41,0.44,0.92,0.8,1.53,1.06c0.61,0.26,1.29,0.39,2.06,0.39c0.43,0,0.85-0.06,1.25-0.2c0.41-0.13,0.78-0.31,1.12-0.54
		c0.34-0.23,0.63-0.51,0.87-0.83c0.25-0.32,0.43-0.67,0.55-1.04H230.79z"/>
	<path class="st2" d="M240.36,113.72c-1.04,0-1.98-0.19-2.82-0.56c-0.84-0.38-1.54-0.87-2.12-1.5c-0.57-0.62-1.02-1.34-1.32-2.15
		c-0.31-0.81-0.46-1.66-0.46-2.53s0.15-1.72,0.46-2.53s0.75-1.53,1.32-2.15c0.58-0.62,1.28-1.12,2.12-1.5s1.77-0.56,2.82-0.56
		s1.98,0.19,2.82,0.56s1.54,0.87,2.12,1.5s1.02,1.34,1.32,2.15s0.46,1.66,0.46,2.53s-0.15,1.72-0.46,2.53
		c-0.31,0.81-0.75,1.53-1.32,2.15s-1.28,1.12-2.12,1.5C242.34,113.54,241.41,113.72,240.36,113.72z M240.36,111.86
		c0.71,0,1.34-0.14,1.91-0.41c0.57-0.28,1.05-0.64,1.45-1.09c0.4-0.45,0.7-0.97,0.91-1.55c0.21-0.58,0.31-1.19,0.31-1.82
		c0-0.63-0.1-1.24-0.31-1.83c-0.21-0.59-0.51-1.11-0.91-1.56c-0.4-0.45-0.88-0.81-1.45-1.08c-0.57-0.27-1.2-0.4-1.91-0.4
		c-0.72,0-1.36,0.13-1.92,0.4c-0.56,0.27-1.04,0.63-1.44,1.08c-0.4,0.45-0.7,0.97-0.91,1.56c-0.21,0.59-0.31,1.2-0.31,1.83
		c0,0.63,0.1,1.24,0.31,1.82c0.21,0.58,0.51,1.1,0.91,1.55c0.4,0.45,0.88,0.82,1.44,1.09C239,111.72,239.64,111.86,240.36,111.86z"
		/>
	<path class="st2" d="M258.44,110.13v-9.59h2.05v12.88h-2.19l-5.57-9.54v9.54h-2.07v-12.88h2.21L258.44,110.13z"/>
	<path class="st2" d="M266.84,102.36h-3.2v-1.82h8.49v1.82h-3.22v11.06h-2.07V102.36z"/>
	<path class="st2" d="M275.25,100.54h4.85c0.69,0,1.31,0.12,1.86,0.36c0.55,0.24,1.02,0.56,1.42,0.97c0.39,0.41,0.69,0.88,0.91,1.43
		c0.21,0.54,0.32,1.12,0.32,1.71c0,0.92-0.25,1.76-0.74,2.51c-0.49,0.75-1.17,1.29-2.05,1.61l2.69,4.3h-2.37l-2.51-3.98h-2.32v3.98
		h-2.07V100.54z M279.95,107.7c0.38,0,0.74-0.07,1.06-0.22s0.59-0.34,0.82-0.59c0.22-0.25,0.39-0.53,0.52-0.85s0.18-0.67,0.18-1.04
		s-0.06-0.72-0.18-1.05c-0.12-0.33-0.29-0.62-0.52-0.86s-0.49-0.44-0.8-0.59c-0.31-0.15-0.66-0.22-1.05-0.22h-2.64v5.41H279.95z"/>
	<path class="st2" d="M297.75,113.42h-2.23l-0.62-1.91h-5.11l-0.64,1.91h-2.18l4.51-12.88h1.75L297.75,113.42z M290.34,109.79h4
		l-2-6.39L290.34,109.79z"/>
	<path class="st2" d="M312.51,109.26c-0.15,0.63-0.41,1.22-0.76,1.76c-0.35,0.54-0.8,1.02-1.33,1.41c-0.54,0.4-1.15,0.71-1.84,0.94
		c-0.69,0.23-1.44,0.34-2.25,0.34c-1.06,0-2.01-0.18-2.85-0.55c-0.84-0.37-1.56-0.86-2.14-1.48c-0.58-0.62-1.03-1.34-1.35-2.15
		c-0.31-0.81-0.47-1.67-0.47-2.58c0-0.87,0.15-1.71,0.46-2.52s0.74-1.52,1.31-2.14c0.57-0.62,1.26-1.12,2.08-1.5
		s1.74-0.56,2.77-0.56c0.95,0,1.79,0.13,2.53,0.39c0.74,0.26,1.37,0.61,1.9,1.06c0.53,0.45,0.95,0.97,1.28,1.56s0.54,1.24,0.67,1.93
		h-2.16c-0.18-0.87-0.62-1.61-1.31-2.21c-0.69-0.6-1.6-0.9-2.74-0.9c-0.75,0-1.42,0.13-2,0.4c-0.58,0.27-1.07,0.63-1.47,1.08
		c-0.4,0.45-0.7,0.97-0.91,1.56c-0.21,0.59-0.31,1.2-0.31,1.83c0,0.67,0.11,1.31,0.33,1.9c0.22,0.59,0.54,1.11,0.95,1.55
		c0.41,0.44,0.92,0.8,1.53,1.06s1.29,0.39,2.06,0.39c0.43,0,0.85-0.06,1.25-0.2c0.41-0.13,0.78-0.31,1.12-0.54
		c0.34-0.23,0.63-0.51,0.87-0.83s0.43-0.67,0.55-1.04H312.51z"/>
	<path class="st2" d="M318.13,102.36h-3.2v-1.82h8.49v1.82h-3.22v11.06h-2.07V102.36z"/>
	<path class="st2" d="M331.63,113.72c-1.04,0-1.98-0.19-2.82-0.56c-0.84-0.38-1.54-0.87-2.12-1.5s-1.02-1.34-1.32-2.15
		c-0.31-0.81-0.46-1.66-0.46-2.53s0.15-1.72,0.46-2.53c0.31-0.81,0.75-1.53,1.32-2.15s1.28-1.12,2.12-1.5
		c0.83-0.38,1.77-0.56,2.82-0.56c1.04,0,1.98,0.19,2.82,0.56c0.83,0.38,1.54,0.87,2.12,1.5c0.57,0.62,1.02,1.34,1.32,2.15
		s0.46,1.66,0.46,2.53s-0.15,1.72-0.46,2.53c-0.31,0.81-0.75,1.53-1.32,2.15c-0.58,0.62-1.28,1.12-2.12,1.5
		C333.61,113.54,332.67,113.72,331.63,113.72z M331.63,111.86c0.71,0,1.34-0.14,1.91-0.41c0.57-0.28,1.05-0.64,1.45-1.09
		s0.7-0.97,0.91-1.55c0.21-0.58,0.31-1.19,0.31-1.82c0-0.63-0.1-1.24-0.31-1.83c-0.21-0.59-0.51-1.11-0.91-1.56
		s-0.88-0.81-1.45-1.08c-0.57-0.27-1.2-0.4-1.91-0.4c-0.72,0-1.36,0.13-1.92,0.4c-0.56,0.27-1.04,0.63-1.44,1.08
		s-0.7,0.97-0.91,1.56c-0.21,0.59-0.31,1.2-0.31,1.83c0,0.63,0.1,1.24,0.31,1.82c0.21,0.58,0.51,1.1,0.91,1.55s0.88,0.82,1.44,1.09
		C330.27,111.72,330.91,111.86,331.63,111.86z"/>
	<path class="st2" d="M341.93,100.54h4.85c0.69,0,1.31,0.12,1.86,0.36c0.55,0.24,1.02,0.56,1.42,0.97c0.39,0.41,0.69,0.88,0.91,1.43
		c0.21,0.54,0.32,1.12,0.32,1.71c0,0.92-0.25,1.76-0.74,2.51c-0.49,0.75-1.17,1.29-2.05,1.61l2.69,4.3h-2.37l-2.51-3.98H344v3.98
		h-2.07V100.54z M346.62,107.7c0.38,0,0.74-0.07,1.06-0.22s0.59-0.34,0.82-0.59c0.22-0.25,0.39-0.53,0.52-0.85s0.18-0.67,0.18-1.04
		s-0.06-0.72-0.18-1.05c-0.12-0.33-0.29-0.62-0.52-0.86s-0.49-0.44-0.8-0.59c-0.31-0.15-0.66-0.22-1.05-0.22H344v5.41H346.62z"/>
	<path class="st2" d="M356.4,109.28c0,0.83,0.24,1.49,0.72,1.98c0.48,0.49,1.14,0.74,1.97,0.74c0.69,0,1.26-0.18,1.7-0.54
		c0.45-0.36,0.67-0.85,0.67-1.46c0-0.35-0.07-0.65-0.21-0.9c-0.14-0.25-0.32-0.45-0.55-0.61c-0.23-0.16-0.49-0.29-0.78-0.4
		s-0.58-0.21-0.87-0.3c-0.58-0.18-1.13-0.38-1.66-0.58c-0.52-0.2-0.98-0.45-1.37-0.75c-0.39-0.3-0.7-0.67-0.93-1.1
		c-0.23-0.44-0.34-0.99-0.34-1.64c0-0.54,0.11-1.02,0.33-1.45c0.22-0.43,0.52-0.79,0.9-1.09c0.38-0.3,0.82-0.53,1.35-0.69
		s1.08-0.24,1.68-0.24c0.66,0,1.25,0.1,1.77,0.3c0.52,0.2,0.97,0.48,1.33,0.83s0.65,0.77,0.85,1.26c0.2,0.49,0.3,1.02,0.3,1.59
		h-2.07c-0.02-0.71-0.21-1.26-0.58-1.68s-0.9-0.62-1.59-0.62c-0.67,0-1.21,0.16-1.61,0.47s-0.6,0.75-0.6,1.3
		c0,0.32,0.06,0.6,0.18,0.83c0.12,0.23,0.29,0.43,0.51,0.59s0.46,0.3,0.75,0.41c0.28,0.12,0.58,0.22,0.89,0.31
		c0.51,0.17,1.02,0.35,1.54,0.54c0.52,0.19,0.99,0.44,1.41,0.74s0.76,0.66,1.02,1.09c0.26,0.43,0.39,0.97,0.39,1.61
		c0,0.63-0.11,1.18-0.34,1.67c-0.23,0.48-0.54,0.89-0.94,1.23c-0.4,0.34-0.88,0.59-1.44,0.76c-0.56,0.17-1.17,0.25-1.83,0.25
		s-1.27-0.1-1.84-0.31s-1.06-0.5-1.47-0.87c-0.41-0.38-0.74-0.84-0.97-1.39c-0.23-0.55-0.35-1.17-0.35-1.86H356.4z"/>
</g>
</svg>
